# xmcd
#
# Track frame offsets: 
#        150
#        13607
#        24400
#        40376
#        55979
#        70131
#        86104
#        105124
#        118479
#        136005
#        153054
#        165017
#        183285
#        200917
#        215035
#
# Disc length: 3096 seconds
#
# Revision: 6
# Processed by: cddbd v1.5.1PL0 Copyright (c) Steve Scherf et al.
# Submitted via: ExactAudioCopy v0.95b2
#
DISCID=c40c160f
DTITLE=Deryl Dodd - Deryl Dodd - Live At Billy Bob's
DYEAR=2003
DGENRE=Country
TTITLE0=Deryl Dodd - Live At Billy Bob's - 01 - Bad For Good
TTITLE1=Deryl Dodd - Live At Billy Bob's - 02 - A Man Can't Help What 
TTITLE1=He's Thinkin'
TTITLE2=Deryl Dodd - Live At Billy Bob's - 03 - That's How I Got To Me
TTITLE2=mphis
TTITLE3=Deryl Dodd - Live At Billy Bob's - 04 - Things Are Fixin' To G
TTITLE3=et Real Good
TTITLE4=Deryl Dodd - Live At Billy Bob's - 05 - Friends Don't Drive Fr
TTITLE4=iends
TTITLE5=Deryl Dodd - Live At Billy Bob's - 06 - One Ride In Vegas
TTITLE6=Deryl Dodd - Live At Billy Bob's - 07 - Movin' Out To The Coun
TTITLE6=try
TTITLE7=Deryl Dodd - Live At Billy Bob's - 08 - John Rowland Wood
TTITLE8=Deryl Dodd - Live At Billy Bob's - 09 - A Bitter End
TTITLE9=Deryl Dodd - Live At Billy Bob's - 10 - New Tony Lamas
TTITLE10=Deryl Dodd - Live At Billy Bob's - 11 - Drinkin' 'Bout You
TTITLE11=Deryl Dodd - Live At Billy Bob's - 12 - That's Just Me
TTITLE12=Deryl Dodd - Live At Billy Bob's - 13 - Only Thing That I Hav
TTITLE12=e Left
TTITLE13=Deryl Dodd - Live At Billy Bob's - 14 - That's All Right Mama
TTITLE14=Deryl Dodd - Live At Billy Bob's - 15 - Things Are Fixin' To 
TTITLE14=Get Real Good (studio version)
EXTD=
EXTT0=
EXTT1=
EXTT2=
EXTT3=
EXTT4=
EXTT5=
EXTT6=
EXTT7=
EXTT8=
EXTT9=
EXTT10=
EXTT11=
EXTT12=
EXTT13=
EXTT14=
PLAYORDER=
